<svg id="LOGO" xmlns="http://www.w3.org/2000/svg" width="128.302" height="40" viewBox="0 0 128.302 40">
  <g id="Grupo_513" data-name="Grupo 513">
    <path id="Trazado_188" data-name="Trazado 188" d="M189.348,576.728c.621.253,1.218.5,1.816.739a121.609,121.609,0,0,0,14.7,4.917,95.1,95.1,0,0,0,10.317,2.121c1.764.258,3.532.474,5.311.624,1.586.134,3.174.224,4.766.281q2.009.072,4.017.033,2.586-.047,5.167-.242,2.8-.211,5.571-.58c2.866-.381,5.709-.889,8.539-1.469,4.257-.873,8.467-1.925,12.678-2.972,4.071-1.013,8.142-2.028,12.254-2.883,2.745-.571,5.5-1.073,8.283-1.462,1.706-.239,3.417-.437,5.134-.584q2.108-.18,4.222-.276c2.268-.1,4.537-.093,6.8-.032,1.349.036,2.7.132,4.044.239,2.08.165,4.149.411,6.209.72q3.967.6,7.864,1.529c.6.143.548.031.551.669,0,.275,0,.551,0,.826-.005.224-.024.239-.258.194-.6-.115-1.2-.24-1.806-.355q-2.838-.54-5.708-.9c-1.543-.193-3.09-.341-4.641-.453-2.263-.164-4.531-.19-6.8-.169-1.69.016-3.376.1-5.059.237-1.886.152-3.764.376-5.635.651a114.471,114.471,0,0,0-13.184,2.845c-3.005.811-5.985,1.7-8.967,2.587-3.754,1.113-7.508,2.222-11.313,3.167-3.233.8-6.492,1.489-9.8,1.977-1.752.259-3.51.459-5.275.621a79.721,79.721,0,0,1-9.51.237c-1.542-.043-3.081-.163-4.618-.306a94.37,94.37,0,0,1-16.818-3.213,131.9,131.9,0,0,1-13.668-4.713c-1.666-.672-3.316-1.379-4.962-2.093a.387.387,0,0,1-.279-.416c.013-.608,0-1.216.005-1.825A.483.483,0,0,1,189.348,576.728Z" transform="translate(-189.294 -549.61)" fill="#f20b1d"/>
    <path id="Trazado_189" data-name="Trazado 189" d="M869.058,282.292a1.231,1.231,0,0,0-.044.453q0,6.283,0,12.567c0,.551.025,1.1.022,1.652a2.033,2.033,0,0,0,1.936,1.951c.5,0,.5.018.5.52,0,.426.046.373-.357.373q-2.944,0-5.887,0c-.069,0-.138,0-.207,0-.113,0-.174-.039-.164-.159,0-.034,0-.069,0-.1.012-.193-.072-.423.04-.569s.345-.037.522-.072a2.1,2.1,0,0,0,1.978-2.07,13.243,13.243,0,0,0,.042-1.548q0-5.9,0-11.809c0-.562-.029-1.123-.072-1.685a1.426,1.426,0,0,0-.939-1.21,2.366,2.366,0,0,0-1.039-.2c-.126,0-.253,0-.379,0-.1,0-.156-.031-.15-.137.014-.238-.091-.522.049-.7.113-.144.389-.048.591-.049q3.46-.005,6.92,0c.387,0,.308-.067.463.315q2.5,6.128,4.985,12.259a1.4,1.4,0,0,0,.213.433c.05-.122.089-.211.124-.3q2.4-6.184,4.8-12.367c.148-.381.061-.337.479-.337q3.684,0,7.368,0c.069,0,.138,0,.206,0,.127-.009.178.037.19.173.064.711.068.712-.636.718a2.882,2.882,0,0,0-1.141.219,1.372,1.372,0,0,0-.865,1.189,10.423,10.423,0,0,0-.064,1.065q-.006,6.8,0,13.6c0,.321.041.641.049.962a1.382,1.382,0,0,0,1.09,1.377,2.943,2.943,0,0,0,1.054.12c.517,0,.519,0,.511.5-.007.446.042.387-.385.387q-4.648,0-9.3,0c-.4,0-.372.061-.366-.365a1.941,1.941,0,0,1,.029-.5,1.762,1.762,0,0,1,.427-.018,4.461,4.461,0,0,0,.992-.079,1.479,1.479,0,0,0,1.185-1.311,8.041,8.041,0,0,0,.067-.961q.011-7.161.012-14.323c0-.045-.005-.09-.008-.147-.127.062-.134.188-.173.285q-3.422,8.535-6.838,17.072a1.337,1.337,0,0,0-.063.16c-.037.142-.115.219-.27.194a.684.684,0,0,0-.1,0c-.288,0-.289,0-.395-.261q-.452-1.115-.9-2.23l-5.944-14.653C869.173,282.562,869.129,282.461,869.058,282.292Z" transform="translate(-808.611 -279.211)" fill="#fff"/>
    <path id="Trazado_190" data-name="Trazado 190" d="M431.077,290.306c.034.058.066.118.1.175q2.261,3.372,4.524,6.743a11.6,11.6,0,0,0,.707.932,2.158,2.158,0,0,0,1.608.812c.371.02.317.045.319.332,0,.558,0,.558-.558.558-1.744,0-3.489,0-5.233.006a.491.491,0,0,1-.47-.252q-2.845-4.245-5.7-8.483a.535.535,0,0,0-.551-.3,6.677,6.677,0,0,1-.86,0c-.15,0-.205.049-.2.2.008.183,0,.367,0,.551q.008,2.634.017,5.268a5.321,5.321,0,0,0,.057.72,1.431,1.431,0,0,0,1.248,1.314,5.374,5.374,0,0,0,1.131.08c.159,0,.235.042.225.213s0,.344,0,.516c0,.115-.04.171-.159.166-.069,0-.138,0-.207,0h-9.158a1.617,1.617,0,0,0-.172,0c-.156.017-.2-.059-.191-.2.018-.215-.087-.479.042-.634s.389-.05.591-.061a3.816,3.816,0,0,0,.883-.124,1.373,1.373,0,0,0,1.043-1.116,6.6,6.6,0,0,0,.112-1.232q0-5.526.006-11.052,0-1.291-.009-2.582a7.28,7.28,0,0,0-.106-1.129,1.351,1.351,0,0,0-.974-1.1,4.272,4.272,0,0,0-1.289-.185c-.325-.012-.309,0-.3-.3.007-.191-.084-.428.054-.559.123-.117.351-.037.532-.037,3.007,0,6.014-.011,9.02.01a16.836,16.836,0,0,1,4,.389,5.053,5.053,0,0,1,4.036,4.125,4.91,4.91,0,0,1-1.929,5.209,5.925,5.925,0,0,1-1.855.88C431.309,290.2,431.17,290.191,431.077,290.306Zm-6.311-5.1h.009q0,1.927,0,3.855c0,.241.006.244.247.246a17.842,17.842,0,0,0,2.541-.125,3.2,3.2,0,0,0,2.913-2.523,6.48,6.48,0,0,0-.008-3.1,2.825,2.825,0,0,0-2.272-2.225,8.128,8.128,0,0,0-1.259-.172c-.665-.048-1.33-.015-2-.028-.14,0-.183.06-.176.186,0,.08,0,.161,0,.241Z" transform="translate(-399.723 -279.26)" fill="#fff"/>
    <path id="Trazado_191" data-name="Trazado 191" d="M1495,290.562c.025.043.05.093.081.14q2.288,3.416,4.577,6.832a10.651,10.651,0,0,0,.667.875,2.154,2.154,0,0,0,1.638.822c.28.01.3-.022.3.316,0,.566.005.566-.552.566-1.744,0-3.489,0-5.233.005a.491.491,0,0,1-.472-.25c-1.891-2.819-3.8-5.63-5.682-8.452a.617.617,0,0,0-.639-.328,4.842,4.842,0,0,1-.757,0c-.193-.013-.233.07-.229.24.008.39,0,.78,0,1.171.009,1.584-.025,3.167.025,4.751a5.889,5.889,0,0,0,.057.616,1.408,1.408,0,0,0,1.2,1.277,6.338,6.338,0,0,0,1.1.091c.286.011.294.012.288.283,0,.192.084.435-.051.561-.118.111-.352.033-.535.033q-4.458,0-8.917,0c-.423,0-.368.042-.371-.362,0-.507,0-.508.5-.522a4.1,4.1,0,0,0,.922-.095,1.405,1.405,0,0,0,1.135-1.151,6.23,6.23,0,0,0,.109-1.163q0-6.817,0-13.634a7.458,7.458,0,0,0-.107-1.2,1.35,1.35,0,0,0-.968-1.1,4.488,4.488,0,0,0-1.323-.191c-.27-.012-.271-.01-.273-.29,0-.138.007-.276,0-.413-.011-.156.061-.206.2-.191a1,1,0,0,0,.1,0c3.1,0,6.2-.009,9.3.012a16.794,16.794,0,0,1,4,.389,5.057,5.057,0,0,1,4.052,4.189,4.9,4.9,0,0,1-1.938,5.143,6.129,6.129,0,0,1-1.953.912C1495.168,290.473,1495.067,290.464,1495,290.562Zm-6.3-5.1h-.006q0,1.909,0,3.818c0,.276,0,.278.284.28a17.149,17.149,0,0,0,2.539-.13,3.192,3.192,0,0,0,2.886-2.55,6.363,6.363,0,0,0-.059-3.232,2.758,2.758,0,0,0-2.134-2.065,7.225,7.225,0,0,0-.914-.153,23.025,23.025,0,0,0-2.3-.054c-.292,0-.294,0-.295.3Q1488.7,283.573,1488.7,285.465Z" transform="translate(-1374.306 -279.515)" fill="#fff"/>
    <path id="Trazado_192" data-name="Trazado 192" d="M1223.42,276.167a10.982,10.982,0,0,1,3.511.439,9.245,9.245,0,0,1,5.239,4.111,10.124,10.124,0,0,1,1.485,4.495,12.087,12.087,0,0,1-.571,5.257,10.5,10.5,0,0,1-3.292,4.743,8.928,8.928,0,0,1-4.542,1.894,12.5,12.5,0,0,1-4.511-.19,9.022,9.022,0,0,1-5.562-3.819,10.794,10.794,0,0,1-1.865-5.252,11.69,11.69,0,0,1,.438-4.763,9.759,9.759,0,0,1,6.025-6.4A9.4,9.4,0,0,1,1223.42,276.167Zm5.183,10.411a23.276,23.276,0,0,0-.4-4.44,8.87,8.87,0,0,0-1.172-2.917,4.223,4.223,0,0,0-6.678-.39,6.819,6.819,0,0,0-.7,1.022,10.918,10.918,0,0,0-1.159,4.18,25.859,25.859,0,0,0-.07,4.4,16,16,0,0,0,.414,2.821,8.238,8.238,0,0,0,1.414,3.107,3.6,3.6,0,0,0,1.957,1.326,5.077,5.077,0,0,0,2.318.061,3.78,3.78,0,0,0,2.421-1.683,8.2,8.2,0,0,0,1.179-2.732A19.782,19.782,0,0,0,1228.6,286.578Z" transform="translate(-1128.344 -276.16)" fill="#fff"/>
    <path id="Trazado_193" data-name="Trazado 193" d="M198.552,279.535c1.2,0,2.41-.014,3.614,0a13.284,13.284,0,0,1,3.5.462,5.612,5.612,0,0,1,3.051,2.056,4.986,4.986,0,0,1,.954,3.635,5.057,5.057,0,0,1-.422,1.659,5.681,5.681,0,0,1-3.394,2.979,9.248,9.248,0,0,1-2.156.417,24.967,24.967,0,0,1-2.852.131c-.247,0-.254,0-.253.234.008,1.985-.034,3.97.018,5.955a4.067,4.067,0,0,0,.05.513,1.433,1.433,0,0,0,1.274,1.29,6.32,6.32,0,0,0,1.062.08c.255,0,.262.008.262.271,0,.193.085.432-.034.567s-.367.051-.557.051q-4.424.005-8.847,0c-.425,0-.369.039-.373-.361-.005-.524,0-.527.517-.533a4.976,4.976,0,0,0,.787-.075,1.475,1.475,0,0,0,1.3-1.386,10.5,10.5,0,0,0,.064-1.065q.007-6.747,0-13.494a7.8,7.8,0,0,0-.093-1.2,1.354,1.354,0,0,0-.995-1.117,4.825,4.825,0,0,0-1.324-.183c-.257-.013-.266-.011-.258-.267.006-.2-.094-.455.056-.59.131-.118.374-.036.567-.036q2.238,0,4.475,0Zm2.042,5.661q0,.98,0,1.96c0,.619,0,1.238,0,1.857,0,.159.042.223.211.226a9.786,9.786,0,0,0,1.065-.016,3.052,3.052,0,0,0,2.874-2.523,6.933,6.933,0,0,0,0-3.035,2.937,2.937,0,0,0-2.342-2.373,5.667,5.667,0,0,0-1.4-.13c-.475,0-.405-.065-.407.39C200.592,282.766,200.594,283.981,200.594,285.2Z" transform="translate(-193.104 -279.245)" fill="#fff"/>
    <path id="Trazado_194" data-name="Trazado 194" d="M708.3,300.108h-4.612c-.08,0-.161,0-.241,0-.1,0-.143-.041-.143-.142q0-.293,0-.585c0-.114.045-.165.163-.163.195,0,.39,0,.585,0a2.917,2.917,0,0,0,.716-.082,1.447,1.447,0,0,0,1.165-1.322,9.655,9.655,0,0,0,.066-1.03q.01-6.8.01-13.595c0-.344-.037-.687-.057-1.03a1.451,1.451,0,0,0-1.074-1.327,3,3,0,0,0-1.119-.145c-.447,0-.45,0-.448-.454,0-.515-.061-.433.436-.434q4.612,0,9.224,0c.426,0,.387-.05.389.383,0,.505,0,.508-.506.505a3.587,3.587,0,0,0-1.02.123,1.447,1.447,0,0,0-1.126,1.358c-.043.468-.06.939-.061,1.409q-.011,6.453-.01,12.906c0,.367.025.734.046,1.1a1.585,1.585,0,0,0,1.607,1.62c.286.02.574.021.86.014.169,0,.226.059.214.221-.01.137,0,.275,0,.413,0,.253-.005.257-.273.257Q710.691,300.11,708.3,300.108Z" transform="translate(-660.912 -279.511)" fill="#fff"/>
  </g>
</svg>
