<svg width="416" height="416" viewBox="0 0 416 416" fill="none" xmlns="http://www.w3.org/2000/svg">
<g clip-path="url(#clip0_30_35)">
<path d="M104 0H17.3333C12.7362 0 8.32745 1.82619 5.07682 5.07682C1.82619 8.32745 0 12.7362 0 17.3333L0 104C0 108.597 1.82619 113.006 5.07682 116.257C8.32745 119.507 12.7362 121.333 17.3333 121.333H104C108.597 121.333 113.006 119.507 116.257 116.257C119.507 113.006 121.333 108.597 121.333 104V17.3333C121.333 12.7362 119.507 8.32745 116.257 5.07682C113.006 1.82619 108.597 0 104 0ZM104 147.333H17.3333C12.7362 147.333 8.32745 149.16 5.07682 152.41C1.82619 155.661 0 160.07 0 164.667L0 251.333C0 255.93 1.82619 260.339 5.07682 263.59C8.32745 266.84 12.7362 268.667 17.3333 268.667H104C108.597 268.667 113.006 266.84 116.257 263.59C119.507 260.339 121.333 255.93 121.333 251.333V164.667C121.333 160.07 119.507 155.661 116.257 152.41C113.006 149.16 108.597 147.333 104 147.333ZM268.667 251.333V164.667C268.667 160.07 266.84 155.661 263.59 152.41C260.339 149.16 255.93 147.333 251.333 147.333H164.667C160.07 147.333 155.661 149.16 152.41 152.41C149.16 155.661 147.333 160.07 147.333 164.667V251.333C147.333 255.93 149.16 260.339 152.41 263.59C155.661 266.84 160.07 268.667 164.667 268.667H251.333C255.93 268.667 260.339 266.84 263.59 263.59C266.84 260.339 268.667 255.93 268.667 251.333ZM268.667 104V17.3333C268.667 12.7362 266.84 8.32745 263.59 5.07682C260.339 1.82619 255.93 0 251.333 0L164.667 0C160.07 0 155.661 1.82619 152.41 5.07682C149.16 8.32745 147.333 12.7362 147.333 17.3333V104C147.333 108.597 149.16 113.006 152.41 116.257C155.661 119.507 160.07 121.333 164.667 121.333H251.333C255.93 121.333 260.339 119.507 263.59 116.257C266.84 113.006 268.667 108.597 268.667 104ZM398.667 0H312C307.403 0 302.994 1.82619 299.743 5.07682C296.493 8.32745 294.667 12.7362 294.667 17.3333V104C294.667 108.597 296.493 113.006 299.743 116.257C302.994 119.507 307.403 121.333 312 121.333H398.667C403.264 121.333 407.673 119.507 410.923 116.257C414.174 113.006 416 108.597 416 104V17.3333C416 12.7362 414.174 8.32745 410.923 5.07682C407.673 1.82619 403.264 0 398.667 0ZM312 268.667H398.667C403.264 268.667 407.673 266.84 410.923 263.59C414.174 260.339 416 255.93 416 251.333V164.667C416 160.07 414.174 155.661 410.923 152.41C407.673 149.16 403.264 147.333 398.667 147.333H312C307.403 147.333 302.994 149.16 299.743 152.41C296.493 155.661 294.667 160.07 294.667 164.667V251.333C294.667 255.93 296.493 260.339 299.743 263.59C302.994 266.84 307.403 268.667 312 268.667ZM312 416H398.667C403.264 416 407.673 414.174 410.923 410.923C414.174 407.673 416 403.264 416 398.667V312C416 307.403 414.174 302.994 410.923 299.743C407.673 296.493 403.264 294.667 398.667 294.667H312C307.403 294.667 302.994 296.493 299.743 299.743C296.493 302.994 294.667 307.403 294.667 312V398.667C294.667 403.264 296.493 407.673 299.743 410.923C302.994 414.174 307.403 416 312 416ZM0 312V398.667C0 403.264 1.82619 407.673 5.07682 410.923C8.32745 414.174 12.7362 416 17.3333 416H104C108.597 416 113.006 414.174 116.257 410.923C119.507 407.673 121.333 403.264 121.333 398.667V312C121.333 307.403 119.507 302.994 116.257 299.743C113.006 296.493 108.597 294.667 104 294.667H17.3333C12.7362 294.667 8.32745 296.493 5.07682 299.743C1.82619 302.994 0 307.403 0 312ZM147.333 312V398.667C147.333 403.264 149.16 407.673 152.41 410.923C155.661 414.174 160.07 416 164.667 416H251.333C255.93 416 260.339 414.174 263.59 410.923C266.84 407.673 268.667 403.264 268.667 398.667V312C268.667 307.403 266.84 302.994 263.59 299.743C260.339 296.493 255.93 294.667 251.333 294.667H164.667C160.07 294.667 155.661 296.493 152.41 299.743C149.16 302.994 147.333 307.403 147.333 312Z" fill="#21261C"/>
</g>
<defs>
<clipPath id="clip0_30_35">
<rect width="416" height="416" fill="white"/>
</clipPath>
</defs>
</svg>
