<svg width="924" height="289" viewBox="0 0 924 289" fill="none" xmlns="http://www.w3.org/2000/svg">
<path d="M923.488 286H826.963V261.085L883.558 194.425H826.303V167.53H921.838V192.94L864.913 259.105H923.488V286Z" fill="white"/>
<path d="M813.728 258.94V286H729.908V167.53H812.573V194.59H761.093V211.585H807.788V238.645H761.093V258.94H813.728Z" fill="white"/>
<path d="M713.438 286H632.423V167.53H663.608V257.785H713.438V286Z" fill="white"/>
<path d="M533.085 239.47H583.41L591.495 264.055H524.835L533.085 239.47ZM586.215 286L558.495 201.85L529.95 286H498.435L542.325 167.53H576.48L619.875 286H586.215Z" fill="white"/>
<path d="M491.169 286H394.644V261.085L451.239 194.425H393.984V167.53H489.519V192.94L432.594 259.105H491.169V286Z" fill="white"/>
<path d="M346.093 286L298.903 212.08V286H270.358V167.53H303.853L347.578 236.005V167.53H376.123V286H346.093Z" fill="white"/>
<path d="M192.993 288.475C184.413 288.475 176.438 286.99 169.068 284.02C161.698 280.94 155.208 276.65 149.598 271.15C144.098 265.54 139.753 258.995 136.563 251.515C133.483 243.925 131.943 235.62 131.943 226.6C131.943 217.58 133.483 209.33 136.563 201.85C139.753 194.37 144.098 187.88 149.598 182.38C155.208 176.88 161.698 172.645 169.068 169.675C176.438 166.595 184.413 165.055 192.993 165.055C201.573 165.055 209.548 166.595 216.918 169.675C224.398 172.645 230.888 176.88 236.388 182.38C241.998 187.88 246.343 194.37 249.423 201.85C252.613 209.33 254.208 217.58 254.208 226.6C254.208 235.62 252.613 243.925 249.423 251.515C246.343 258.995 241.998 265.54 236.388 271.15C230.888 276.65 224.398 280.94 216.918 284.02C209.548 286.99 201.573 288.475 192.993 288.475ZM192.993 260.59C197.613 260.59 201.738 259.71 205.368 257.95C208.998 256.19 212.023 253.77 214.443 250.69C216.973 247.5 218.843 243.87 220.053 239.8C221.373 235.62 222.033 231.22 222.033 226.6C222.033 221.98 221.373 217.635 220.053 213.565C218.843 209.495 216.973 205.92 214.443 202.84C212.023 199.76 208.998 197.34 205.368 195.58C201.738 193.82 197.613 192.94 192.993 192.94C188.373 192.94 184.248 193.82 180.618 195.58C176.988 197.34 173.908 199.76 171.378 202.84C168.958 205.92 167.088 209.495 165.768 213.565C164.558 217.635 163.953 221.98 163.953 226.6C163.953 231.22 164.558 235.62 165.768 239.8C167.088 243.87 168.958 247.5 171.378 250.69C173.908 253.77 176.988 256.19 180.618 257.95C184.248 259.71 188.373 260.59 192.993 260.59Z" fill="white"/>
<path d="M62.165 288.475C53.585 288.475 45.555 286.99 38.075 284.02C30.595 280.94 24.05 276.65 18.44 271.15C12.83 265.65 8.43 259.105 5.24 251.515C2.16 243.815 0.619995 235.345 0.619995 226.105C0.619995 217.305 2.105 209.22 5.075 201.85C8.155 194.48 12.39 188.045 17.78 182.545C23.28 176.935 29.715 172.645 37.085 169.675C44.455 166.595 52.485 165.055 61.175 165.055C71.075 165.055 80.04 166.87 88.07 170.5C96.1 174.02 102.92 179.08 108.53 185.68C114.14 192.17 118.32 199.87 121.07 208.78H84.11C83.12 205.7 81.525 203.005 79.325 200.695C77.125 198.275 74.43 196.405 71.24 195.085C68.05 193.655 64.42 192.94 60.35 192.94C55.29 192.94 50.615 194.15 46.325 196.57C42.145 198.99 38.79 202.73 36.26 207.79C33.84 212.74 32.63 219.12 32.63 226.93C32.63 233.53 33.73 239.47 35.93 244.75C38.13 250.03 41.54 254.265 46.16 257.455C50.78 260.535 56.665 262.075 63.815 262.075C68.325 262.075 72.23 261.305 75.53 259.765C78.94 258.225 81.8 256.135 84.11 253.495C86.42 250.855 88.125 247.885 89.225 244.585H60.68V220H122.555C123.215 229.79 122.28 238.865 119.75 247.225C117.22 255.475 113.315 262.735 108.035 269.005C102.755 275.165 96.21 279.95 88.4 283.36C80.7 286.77 71.955 288.475 62.165 288.475Z" fill="white"/>
<path d="M400.371 123.475C391.791 123.475 383.816 121.99 376.446 119.02C369.076 115.94 362.586 111.65 356.976 106.15C351.476 100.54 347.131 93.995 343.941 86.515C340.861 78.925 339.321 70.62 339.321 61.6C339.321 52.58 340.861 44.33 343.941 36.85C347.131 29.37 351.476 22.88 356.976 17.38C362.586 11.88 369.076 7.64499 376.446 4.67499C383.816 1.59499 391.791 0.0549927 400.371 0.0549927C408.951 0.0549927 416.926 1.59499 424.296 4.67499C431.776 7.64499 438.266 11.88 443.766 17.38C449.376 22.88 453.721 29.37 456.801 36.85C459.991 44.33 461.586 52.58 461.586 61.6C461.586 70.62 459.991 78.925 456.801 86.515C453.721 93.995 449.376 100.54 443.766 106.15C438.266 111.65 431.776 115.94 424.296 119.02C416.926 121.99 408.951 123.475 400.371 123.475ZM400.371 95.59C404.991 95.59 409.116 94.71 412.746 92.95C416.376 91.19 419.401 88.77 421.821 85.69C424.351 82.5 426.221 78.87 427.431 74.8C428.751 70.62 429.411 66.22 429.411 61.6C429.411 56.98 428.751 52.635 427.431 48.565C426.221 44.495 424.351 40.92 421.821 37.84C419.401 34.76 416.376 32.34 412.746 30.58C409.116 28.82 404.991 27.94 400.371 27.94C395.751 27.94 391.626 28.82 387.996 30.58C384.366 32.34 381.286 34.76 378.756 37.84C376.336 40.92 374.466 44.495 373.146 48.565C371.936 52.635 371.331 56.98 371.331 61.6C371.331 66.22 371.936 70.62 373.146 74.8C374.466 78.87 376.336 82.5 378.756 85.69C381.286 88.77 384.366 91.19 387.996 92.95C391.626 94.71 395.751 95.59 400.371 95.59Z" fill="white"/>
<path d="M330.036 121H233.511V96.085L290.106 29.425H232.851V2.53003H328.386V27.94L271.461 94.105H330.036V121Z" fill="white"/>
<path d="M184.96 121L137.77 47.08V121H109.225V2.53003H142.72L186.445 71.005V2.53003H214.99V121H184.96Z" fill="white"/>
<path d="M91.37 93.94V121H7.54999V2.53003H90.215V29.59H38.735V46.585H85.43V73.645H38.735V93.94H91.37Z" fill="white"/>
</svg>
